<svg version="1.1" id="Layer_1" xmlns="http://www.w3.org/2000/svg" xmlns:xlink="http://www.w3.org/1999/xlink" x="0px" y="0px"
	 width="100%" viewBox="0 0 1024 1024" enable-background="new 0 0 1024 1024" xml:space="preserve">
<path fill="#000000" opacity="1.000000" stroke="none" 
	d="
M385.619720,768.654724 
	C411.039093,765.897095 434.744934,757.920837 460.151062,751.476379 
	C453.382324,745.257080 450.843658,738.054382 450.228241,730.084351 
	C449.591949,721.843872 450.537415,713.793274 453.520782,706.069824 
	C455.405212,701.191345 459.053741,697.890442 463.641266,695.458862 
	C475.966614,688.926147 489.504822,686.856567 503.019043,684.955383 
	C513.395142,683.495605 523.861755,682.577087 534.387573,682.902649 
	C547.073975,683.295166 552.889709,687.933289 555.740540,700.333618 
	C556.940979,705.555115 557.350952,710.882446 556.109131,716.166199 
	C555.677917,718.001282 555.702271,720.201050 553.563660,721.394653 
	C551.261230,719.700928 551.901001,717.204285 551.772583,715.017273 
	C551.427551,709.141663 550.381165,703.435486 547.797974,698.118286 
	C545.578796,693.550476 542.174011,690.999695 536.708923,691.288330 
	C515.326965,692.417542 494.322296,695.282349 474.224396,703.214233 
	C468.499268,705.473694 465.399750,709.282104 464.391541,715.254761 
	C463.156647,722.570312 462.643250,729.783081 465.259033,736.936523 
	C466.536346,740.429565 468.753113,742.507812 472.583832,742.656189 
	C498.081116,743.643738 522.653564,739.013855 546.391479,729.988281 
	C558.620422,725.338562 562.544312,714.688232 563.527649,702.866028 
	C564.512695,691.022949 561.021790,680.814941 550.498901,673.904175 
	C547.938171,672.222473 545.698486,671.703125 542.645691,672.965149 
	C535.359253,675.977478 527.601807,677.362000 519.762878,677.740540 
	C498.157471,678.783752 476.499298,680.529480 455.319519,673.918579 
	C445.783386,670.942017 437.095856,666.549744 429.970825,659.468262 
	C427.996338,657.505920 426.640991,657.351929 424.614380,659.327881 
	C410.351318,673.234558 392.644073,681.051636 373.869934,686.071350 
	C360.830261,689.557800 351.446564,697.183167 343.107697,706.984985 
	C341.489685,708.886841 340.145355,712.655396 337.187225,711.090881 
	C334.063171,709.438660 336.055573,705.946594 336.930450,703.407288 
	C338.111969,699.977844 339.753967,696.707031 341.288574,693.159790 
	C339.224823,691.743896 337.026337,692.365295 334.978363,692.498901 
	C310.507050,694.095032 287.540100,689.650635 267.073486,675.447754 
	C248.708969,662.703552 237.395142,644.644348 229.521957,624.238403 
	C220.638184,601.213257 216.766312,577.103577 214.622803,552.623230 
	C211.503632,517.000061 215.439697,481.840302 221.087936,446.773804 
	C223.261429,433.279846 224.127899,419.677490 224.695404,406.047241 
	C225.436874,388.237915 226.549225,370.482910 231.728668,353.266541 
	C233.756073,346.527435 236.613342,340.162628 240.353073,334.201874 
	C241.300385,332.691986 242.094696,330.964355 244.171890,330.516022 
	C246.116211,331.992310 245.496948,333.992645 245.071060,335.575500 
	C238.176834,361.199524 238.680954,387.378479 239.424377,413.519043 
	C240.056458,435.744690 237.027252,457.699280 235.706757,479.781342 
	C234.515076,499.708893 234.348053,519.716309 236.109009,539.691772 
	C238.175705,563.135376 241.969849,586.218506 249.261581,608.638123 
	C254.463928,624.633606 261.613098,639.607117 273.455902,651.875916 
	C286.307800,665.190186 302.405670,671.934082 320.531006,673.619568 
	C355.372131,676.859558 388.028473,669.333618 418.626984,652.545776 
	C420.751251,651.380371 423.323700,650.609314 421.772339,647.015686 
	C413.574585,628.026367 410.379059,607.730347 406.918945,587.571594 
	C401.226898,554.409302 398.547668,520.914246 396.552979,487.341888 
	C395.307281,466.375977 394.548157,445.419037 394.745361,424.422974 
	C394.818970,416.588318 395.240509,408.770508 396.984650,401.113831 
	C397.508759,398.813080 397.891571,395.627106 401.083344,395.590881 
	C403.850159,395.559509 404.490417,398.432068 405.393311,400.521423 
	C408.126434,406.845886 408.765015,413.713562 410.398987,420.324615 
	C410.589722,421.096344 410.648285,421.971313 411.920380,422.515411 
	C413.774292,419.068237 415.588013,415.555420 417.539337,412.120728 
	C418.688263,410.098297 419.924591,408.096161 421.365173,406.277893 
	C422.553650,404.777802 423.871857,402.438873 426.082428,403.387573 
	C428.358276,404.364258 428.194092,407.020538 427.819214,409.140472 
	C425.618866,421.582947 423.217163,433.990143 421.058685,446.439636 
	C417.978516,464.204926 416.953064,481.971100 419.398071,500.004974 
	C421.921875,518.619385 423.265594,537.391052 425.329468,556.071350 
	C428.286133,582.832458 430.494934,609.685181 437.121948,635.941528 
	C439.984833,647.284363 446.464111,654.731689 456.912384,659.321228 
	C468.352692,664.346497 480.417419,667.014343 492.757019,667.483276 
	C503.666077,667.897827 514.639832,668.663879 525.557007,665.908813 
	C548.559326,660.103821 560.724487,644.812073 564.579590,622.264282 
	C567.836853,603.213562 568.759277,583.910400 569.727600,564.627075 
	C571.122070,536.858459 571.633972,509.052124 573.521484,481.302582 
	C574.314880,469.638062 571.427124,458.132507 571.264587,446.465485 
	C571.106445,435.112457 568.994568,423.975128 566.447205,412.929291 
	C566.037964,411.154572 565.384155,408.994141 567.582947,408.110931 
	C569.320618,407.412964 570.775024,408.910095 571.769775,410.225983 
	C574.158875,413.386383 576.376221,416.676666 579.044922,420.455505 
	C580.548462,416.123840 581.766235,412.225922 583.268127,408.440674 
	C584.115479,406.304901 585.196777,403.780853 587.977722,403.900909 
	C591.022766,404.032471 591.328735,406.889130 591.625488,409.113464 
	C592.328369,414.381104 593.166870,419.687256 593.184387,424.980377 
	C593.284485,455.144623 593.729431,485.324127 592.961548,515.470520 
	C592.084778,549.894348 590.841736,584.364075 583.382324,618.207886 
	C580.786987,629.983154 577.364807,641.475037 570.266052,651.438782 
	C568.048523,654.551331 569.273132,656.235413 571.805969,657.909485 
	C579.465088,662.971802 588.034973,665.591614 596.984070,667.013000 
	C610.205872,669.113037 623.447449,669.861023 636.686218,666.960449 
	C655.134705,662.918579 668.016907,652.285706 675.369202,634.837646 
	C683.854736,614.700317 687.769836,593.467468 690.680359,571.992798 
	C695.050293,539.750854 695.740784,507.316772 696.033447,474.832306 
	C696.183167,458.214905 697.219055,441.560303 701.692688,425.371094 
	C702.672302,421.825836 703.878418,418.373627 705.856750,415.241241 
	C706.509277,414.208069 707.390503,413.351318 708.677307,413.499817 
	C710.112244,413.665436 710.419373,414.968903 710.588318,416.109436 
	C710.977051,418.733307 711.232605,421.376831 711.624512,424.712616 
	C713.421204,422.867157 714.909485,421.243561 716.504822,419.732971 
	C717.572571,418.721954 718.783813,417.403412 720.401550,418.405151 
	C721.967285,419.374664 721.525879,421.120972 721.119873,422.511292 
	C720.233582,425.545929 719.332581,428.606018 718.073242,431.496918 
	C711.628479,446.290588 711.149719,461.584625 712.798950,477.429108 
	C715.127258,499.797455 715.362427,522.247925 713.606323,544.747437 
	C711.369202,573.409851 707.042725,601.584167 697.177856,628.718506 
	C697.017334,629.160034 697.104553,629.691589 697.081299,630.091980 
	C697.742615,631.131714 698.735229,631.428162 699.721863,631.475647 
	C714.624268,632.192322 729.393921,631.630737 743.484619,626.010315 
	C764.957825,617.445190 776.615051,600.561951 782.573853,579.096924 
	C788.117188,559.128296 790.266113,538.626038 791.731384,518.023193 
	C793.589844,491.891052 793.085815,465.726501 792.550720,439.585266 
	C792.200378,422.466949 790.815674,405.375275 787.682251,388.455658 
	C785.180054,374.944366 777.693237,365.799469 765.080933,360.829742 
	C759.670471,358.697784 754.037903,357.131989 748.518372,355.272980 
	C746.310791,354.529449 744.086304,353.800354 741.963013,352.854645 
	C740.464478,352.187195 738.703674,351.295166 738.976135,349.299469 
	C739.272095,347.131470 741.353882,347.171448 742.936768,347.085144 
	C753.825073,346.491241 764.590637,347.037445 774.943970,350.945618 
	C792.848389,357.704102 801.538269,371.720245 805.233948,389.580780 
	C809.526184,410.324646 811.696167,431.329346 812.201843,452.482971 
	C813.019104,486.670929 811.881104,520.754944 805.284668,554.441284 
	C801.195007,575.326172 795.698975,595.733276 782.174805,612.863464 
	C769.188049,629.312927 751.829712,637.764771 731.232910,640.314087 
	C720.019897,641.701904 708.924744,641.088074 697.936218,638.953918 
	C694.237854,638.235596 692.484253,639.148132 690.898560,642.346863 
	C683.123047,658.032593 671.572449,670.017883 654.883545,675.911133 
	C626.694031,685.865540 599.496094,682.073181 573.278564,668.621582 
	C569.399048,666.631104 566.656311,663.173096 563.266357,660.501953 
	C560.853760,661.797668 559.038696,663.385986 557.676758,665.627319 
	C558.049438,666.062073 558.287354,666.556152 558.677551,666.763489 
	C573.961060,674.883179 579.745605,688.233154 579.543701,704.806396 
	C579.288940,725.711182 569.353638,740.167358 550.136963,748.208374 
	C534.220825,754.868347 517.333069,758.128540 500.598816,761.806641 
	C471.813660,768.133301 443.664124,777.060913 414.718262,782.690491 
	C394.816681,786.560974 374.813721,788.414429 354.742920,783.951782 
	C338.535187,780.348083 324.801483,771.859863 312.554138,761.066772 
	C285.223938,736.981873 263.578827,708.472168 247.660568,675.678589 
	C245.745834,671.734070 243.737839,667.698181 244.054947,662.755005 
	C248.353333,663.011963 249.784561,666.352295 251.660355,668.794250 
	C259.779633,679.364197 267.508881,690.237610 275.753387,700.706604 
	C288.871399,717.363892 303.424194,732.623596 319.553680,746.499512 
	C338.580536,762.867920 359.831299,771.499084 385.619720,768.654724 
z"/>
<path fill="#000000" opacity="1.000000" stroke="none" 
	d="
M394.824860,295.160828 
	C372.322845,298.975769 350.180237,296.526489 328.096924,295.611694 
	C303.224579,294.581360 280.465363,299.580658 260.919830,315.824371 
	C259.006805,317.414185 256.890442,318.769745 254.804489,320.136383 
	C253.840622,320.767944 252.692047,321.355377 251.599457,320.362854 
	C250.591614,319.447327 250.756744,318.229034 251.121567,317.101959 
	C252.415390,313.104858 254.382721,309.445496 256.916656,306.102814 
	C269.338135,289.716949 286.505676,281.772949 306.278870,278.748291 
	C319.806854,276.678955 333.514740,276.188477 347.128479,276.834229 
	C376.542816,278.229462 403.792145,271.327881 429.853119,257.988770 
	C445.276367,250.094528 461.380096,243.567490 478.672028,240.809067 
	C500.482330,237.329910 521.376038,240.813995 541.672913,249.220932 
	C554.021790,254.335815 566.019104,260.156616 577.295715,267.246490 
	C593.019836,277.132599 610.221680,282.130554 628.381775,284.736359 
	C639.579590,286.343170 650.687622,288.463501 661.453369,292.142792 
	C675.986328,297.109528 687.814697,306.156555 698.911438,316.399292 
	C708.213684,324.985687 717.596924,333.484406 726.909119,342.060089 
	C727.956970,343.025055 729.413025,343.798218 729.394409,345.885773 
	C725.836182,347.262207 723.079041,345.033813 720.326904,343.565704 
	C712.054077,339.152771 704.519714,333.506439 697.580505,327.345673 
	C677.049072,309.117584 652.592773,301.458893 625.889893,299.403564 
	C604.806763,297.780792 585.154175,291.654144 566.559998,281.631561 
	C555.274231,275.548340 543.560303,270.340393 531.382751,266.173767 
	C509.317169,258.623901 487.489838,259.324371 465.971344,267.937134 
	C453.612396,272.883789 441.457977,278.353973 429.299286,283.785004 
	C418.313477,288.692169 407.047668,292.667999 394.824860,295.160828 
z"/>
</svg>